{
  "accessors": [
    {
      "bufferView": 3,
      "componentType": 5126,
      "count": 636,
      "max": [
        0.1583210974931717,
        2.3358771800994873,
        0.8506664633750916
      ],
      "min": [
        -0.12858712673187256,
        0.0018512606620788574,
        -0.8506494760513306
      ],
      "type": "VEC3"
    },
    {
      "bufferView": 3,
      "byteOffset": 7632,
      "componentType": 5126,
      "count": 636,
      "max": [
        0.7163710594177246,
        0.7118722796440125,
        0.7131949663162231
      ],
      "min": [
        -0.7163722515106201,
        -0.703217625617981,
        -0.7131870985031128
      ],
      "type": "VEC3"
    },
    {
      "bufferView": 2,
      "componentType": 5126,
      "count": 636,
      "max": [
        0.9116628766059875,
        0.8447332382202148
      ],
      "min": [
        0.14167384803295135,
        0.0028606653213500977
      ],
      "type": "VEC2"
    },
    {
      "bufferView": 1,
      "componentType": 5125,
      "count": 1830,
      "type": "SCALAR"
    },
    {
      "bufferView": 3,
      "byteOffset": 15264,
      "componentType": 5126,
      "count": 3995,
      "max": [
        0.0997496023774147,
        2.3037033081054688,
        0.8115774393081665
      ],
      "min": [
        -0.10825087130069733,
        0.001798514393158257,
        -0.027147239074110985
      ],
      "type": "VEC3"
    },
    {
      "bufferView": 3,
      "byteOffset": 63204,
      "componentType": 5126,
      "count": 3995,
      "max": [
        1.0,
        1.0,
        1.0
      ],
      "min": [
        -1.0,
        -1.0,
        -1.0
      ],
      "type": "VEC3"
    },
    {
      "bufferView": 2,
      "byteOffset": 5088,
      "componentType": 5126,
      "count": 3995,
      "max": [
        0.9948850274085999,
        0.9937527179718018
      ],
      "min": [
        0.002858503255993128,
        0.0028543078806251287
      ],
      "type": "VEC2"
    },
    {
      "bufferView": 1,
      "byteOffset": 7320,
      "componentType": 5125,
      "count": 10158,
      "type": "SCALAR"
    },
    {
      "bufferView": 3,
      "byteOffset": 111144,
      "componentType": 5126,
      "count": 3656,
      "max": [
        0.08962870389223099,
        2.3013498783111572,
        0.003050999017432332
      ],
      "min": [
        -0.10909608751535416,
        0.0018579998286440969,
        -0.8125912547111511
      ],
      "type": "VEC3"
    },
    {
      "bufferView": 3,
      "byteOffset": 155016,
      "componentType": 5126,
      "count": 3656,
      "max": [
        1.0,
        1.0,
        1.0
      ],
      "min": [
        -1.0,
        -1.0,
        -1.0
      ],
      "type": "VEC3"
    },
    {
      "bufferView": 2,
      "byteOffset": 37048,
      "componentType": 5126,
      "count": 3656,
      "max": [
        0.9970720410346985,
        0.9965231418609619
      ],
      "min": [
        0.0028609775472432375,
        0.0028549153357744217
      ],
      "type": "VEC2"
    },
    {
      "bufferView": 1,
      "byteOffset": 47952,
      "componentType": 5125,
      "count": 9660,
      "type": "SCALAR"
    },
    {
      "bufferView": 5,
      "componentType": 5126,
      "count": 7,
      "max": [
        1.0,
        0.0,
        1.8516908884048462,
        0.0,
        2.2676673419663523e-16,
        1.0,
        1.8516908884048462,
        0.0,
        1.397988000917394e-07,
        1.8516908884048462,
        1.0,
        0.0,
        3.094458818435669,
        1.4744586944580078,
        0.1229342445731163,
        1.0
      ],
      "min": [
        -1.8516908884048462,
        -1.660850175108381e-14,
        0.0,
        0.0,
        -1.8516908884048462,
        -1.397988000917394e-07,
        -1.3979877167002996e-07,
        0.0,
        0.0,
        -1.8516908884048462,
        -6.053986301932926e-15,
        0.0,
        -0.13606710731983185,
        0.0,
        -3.0796995162963867,
        1.0
      ],
      "type": "MAT4"
    },
    {
      "bufferView": 0,
      "componentType": 5123,
      "count": 3995,
      "type": "VEC4"
    },
    {
      "bufferView": 4,
      "componentType": 5126,
      "count": 3995,
      "max": [
        1.0,
        0.0,
        0.0,
        0.0
      ],
      "min": [
        1.0,
        0.0,
        0.0,
        0.0
      ],
      "type": "VEC4"
    },
    {
      "bufferView": 0,
      "byteOffset": 31960,
      "componentType": 5123,
      "count": 3656,
      "type": "VEC4"
    },
    {
      "bufferView": 4,
      "byteOffset": 63920,
      "componentType": 5126,
      "count": 3656,
      "max": [
        1.0,
        0.0,
        0.0,
        0.0
      ],
      "min": [
        1.0,
        0.0,
        0.0,
        0.0
      ],
      "type": "VEC4"
    },
    {
      "bufferView": 6,
      "componentType": 5126,
      "count": 201,
      "max": [
        4.958333492279053
      ],
      "min": [
        0.0
      ],
      "type": "SCALAR"
    },
    {
      "bufferView": 7,
      "componentType": 5126,
      "count": 201,
      "max": [
        0.7071068286895752,
        0.47778913378715515,
        -8.71576310825733e-33,
        0.7071067094802856
      ],
      "min": [
        0.5212653279304504,
        -8.715765312309238e-33,
        -0.4777892231941223,
        0.5212652683258057
      ],
      "type": "VEC4"
    },
    {
      "bufferView": 6,
      "byteOffset": 804,
      "componentType": 5126,
      "count": 207,
      "max": [
        4.958333492279053
      ],
      "min": [
        0.0
      ],
      "type": "SCALAR"
    },
    {
      "bufferView": 7,
      "byteOffset": 3216,
      "componentType": 5126,
      "count": 207,
      "max": [
        0.7042075991630554,
        0.7042075395584106,
        0.4999999403953552,
        0.5000000596046448
      ],
      "min": [
        -0.5,
        -0.5,
        -0.4995308220386505,
        -0.49953097105026245
      ],
      "type": "VEC4"
    }
  ],
  "animations": [
    {
      "channels": [
        {
          "sampler": 0,
          "target": {
            "node": 7,
            "path": "rotation"
          }
        },
        {
          "sampler": 1,
          "target": {
            "node": 9,
            "path": "rotation"
          }
        }
      ],
      "name": "Door|DoorAction",
      "samplers": [
        {
          "input": 17,
          "interpolation": "LINEAR",
          "output": 18
        },
        {
          "input": 19,
          "interpolation": "LINEAR",
          "output": 20
        }
      ]
    }
  ],
  "asset": {
    "extras": {
      "author": "Ellie3D (https://sketchfab.com/Ellie3D)",
      "license": "CC-BY-4.0 (http://creativecommons.org/licenses/by/4.0/)",
      "source": "https://sketchfab.com/3d-models/old-wooden-door-1cec090cd02142b094802d242e03ee7c",
      "title": "Old wooden Door"
    },
    "generator": "Sketchfab-12.67.0",
    "version": "2.0"
  },
  "bufferViews": [
    {
      "buffer": 0,
      "byteLength": 61208,
      "byteStride": 8,
      "name": "shortBufferViews",
      "target": 34962
    },
    {
      "buffer": 0,
      "byteLength": 86592,
      "byteOffset": 61208,
      "name": "floatBufferViews",
      "target": 34963
    },
    {
      "buffer": 0,
      "byteLength": 66296,
      "byteOffset": 147800,
      "byteStride": 8,
      "name": "floatBufferViews",
      "target": 34962
    },
    {
      "buffer": 0,
      "byteLength": 198888,
      "byteOffset": 214096,
      "byteStride": 12,
      "name": "floatBufferViews",
      "target": 34962
    },
    {
      "buffer": 0,
      "byteLength": 122416,
      "byteOffset": 412984,
      "byteStride": 16,
      "name": "floatBufferViews",
      "target": 34962
    },
    {
      "buffer": 0,
      "byteLength": 448,
      "byteOffset": 535400,
      "name": "floatBufferViews"
    },
    {
      "buffer": 0,
      "byteLength": 1632,
      "byteOffset": 535848,
      "name": "floatBufferViews"
    },
    {
      "buffer": 0,
      "byteLength": 6528,
      "byteOffset": 537480,
      "byteStride": 16,
      "name": "floatBufferViews"
    }
  ],
  "buffers": [
    {
      "byteLength": 544008,
      "uri": "scene.bin"
    }
  ],
  "images": [
    {
      "uri": "textures/Door_baseColor.png"
    },
    {
      "uri": "textures/Door_metallicRoughness.png"
    }
  ],
  "materials": [
    {
      "doubleSided": true,
      "name": "Door",
      "occlusionTexture": {
        "index": 1
      },
      "pbrMetallicRoughness": {
        "baseColorTexture": {
          "index": 0
        },
        "metallicRoughnessTexture": {
          "index": 1
        }
      }
    }
  ],
  "meshes": [
    {
      "name": "Jamb_Door_0",
      "primitives": [
        {
          "attributes": {
            "NORMAL": 1,
            "POSITION": 0,
            "TEXCOORD_0": 2
          },
          "indices": 3,
          "material": 0,
          "mode": 4
        }
      ]
    },
    {
      "name": "Door Right_Door_0",
      "primitives": [
        {
          "attributes": {
            "JOINTS_0": 13,
            "NORMAL": 5,
            "POSITION": 4,
            "TEXCOORD_0": 6,
            "WEIGHTS_0": 14
          },
          "indices": 7,
          "material": 0,
          "mode": 4
        }
      ]
    },
    {
      "name": "Door left_Door_0",
      "primitives": [
        {
          "attributes": {
            "JOINTS_0": 15,
            "NORMAL": 9,
            "POSITION": 8,
            "TEXCOORD_0": 10,
            "WEIGHTS_0": 16
          },
          "indices": 11,
          "material": 0,
          "mode": 4
        }
      ]
    }
  ],
  "nodes": [
    {
      "children": [
        1
      ],
      "matrix": [
        1.0,
        0.0,
        0.0,
        0.0,
        0.0,
        2.220446049250313e-16,
        -1.0,
        0.0,
        0.0,
        1.0,
        2.220446049250313e-16,
        0.0,
        0.0,
        0.0,
        0.0,
        1.0
      ],
      "name": "Sketchfab_model"
    },
    {
      "children": [
        2
      ],
      "matrix": [
        1.0,
        0.0,
        0.0,
        0.0,
        0.0,
        0.0,
        1.0,
        0.0,
        0.0,
        -1.0,
        0.0,
        0.0,
        0.0,
        0.0,
        0.0,
        1.0
      ],
      "name": "DoorAnimated.fbx"
    },
    {
      "children": [
        3
      ],
      "name": "Object_2"
    },
    {
      "children": [
        4,
        19,
        20
      ],
      "name": "RootNode"
    },
    {
      "children": [
        5
      ],
      "name": "Door",
      "rotation": [
        9.553427325823525e-16,
        -2.1855694143368964e-08,
        1.0,
        -4.371138828673793e-08
      ],
      "scale": [
        0.5400469303131104,
        0.5400469303131104,
        0.5400469303131104
      ],
      "translation": [
        0.0,
        0.8954204320907593,
        -0.6442285180091858
      ]
    },
    {
      "children": [
        6,
        16,
        18,
        15,
        17
      ],
      "name": "Object_5"
    },
    {
      "children": [
        7,
        9,
        11
      ],
      "name": "_rootJoint"
    },
    {
      "children": [
        8
      ],
      "name": "Door.L_00",
      "rotation": [
        0.5209246873855591,
        0.4781606197357178,
        -0.47816115617752075,
        0.5209240317344666
      ],
      "translation": [
        0.13606709241867065,
        -1.4216575622558594,
        -0.2815464437007904
      ]
    },
    {
      "name": "Door.L_end_03",
      "rotation": [
        -1.3317607862103746e-22,
        -0.0,
        0.0,
        1.0
      ],
      "translation": [
        0.0,
        1.0,
        4.440892098500626e-16
      ]
    },
    {
      "children": [
        10
      ],
      "name": "Door.R_01",
      "rotation": [
        0.7043728828430176,
        0.7043730616569519,
        -0.06211868301033974,
        -0.06211867183446884
      ],
      "scale": [
        1.0,
        1.000000238418579,
        1.000000238418579
      ],
      "translation": [
        0.1229340136051178,
        -1.4364173412322998,
        2.6560187339782715
      ]
    },
    {
      "name": "Door.R_end_04",
      "rotation": [
        4.163336342344337e-17,
        9.926167350636332e-24,
        -2.481541837659083e-24,
        1.0
      ],
      "translation": [
        0.0,
        0.9999998807907104,
        2.220446049250313e-16
      ]
    },
    {
      "children": [
        12,
        13
      ],
      "name": "Jamb_02",
      "rotation": [
        0.7071069478988647,
        -1.3767873952019727e-07,
        -0.7071066498756409,
        -1.3767879636361613e-07
      ],
      "scale": [
        1.0,
        0.9999999403953552,
        1.0
      ],
      "translation": [
        0.030850626528263092,
        1.6151424646377563,
        1.1828640699386597
      ]
    },
    {
      "name": "Jamb_end_05",
      "rotation": [
        -3.623782767249072e-23,
        -0.0,
        0.0,
        1.0
      ],
      "translation": [
        -1.734723475976807e-18,
        0.5228209495544434,
        0.0
      ]
    },
    {
      "children": [
        14
      ],
      "name": "Jamb",
      "rotation": [
        1.4577436502349883e-07,
        -0.7071066498756409,
        1.4577430818007997e-07,
        0.7071069478988647
      ],
      "scale": [
        1.8516910076141357,
        1.8598730564117432,
        1.8516910076141357
      ],
      "translation": [
        -0.010048064403235912,
        -0.04289942979812622,
        0.030850641429424286
      ]
    },
    {
      "mesh": 0,
      "name": "Jamb_Door_0"
    },
    {
      "matrix": [
        1.0000000445504043,
        0.0,
        0.0,
        0.0,
        0.0,
        1.0000000445504063,
        8.916147476638412e-15,
        0.0,
        0.0,
        -8.916147476638412e-15,
        1.0000000445504063,
        0.0,
        6.485542769496533e-09,
        -1.7502027094273842e-07,
        7.5709087332676e-08,
        1.0
      ],
      "name": "Object_15"
    },
    {
      "mesh": 1,
      "name": "Object_16",
      "skin": 0
    },
    {
      "matrix": [
        1.0000000445504043,
        0.0,
        0.0,
        0.0,
        0.0,
        1.0000000445504063,
        8.916147476638412e-15,
        0.0,
        0.0,
        -8.916147476638412e-15,
        1.0000000445504063,
        0.0,
        6.485542769496533e-09,
        -1.7502027094273842e-07,
        7.5709087332676e-08,
        1.0
      ],
      "name": "Object_17"
    },
    {
      "mesh": 2,
      "name": "Object_18",
      "skin": 0
    },
    {
      "name": "Door Right",
      "rotation": [
        3.552713678800501e-15,
        0.0,
        0.0,
        1.0
      ],
      "translation": [
        0.0,
        -1.4736941977844253e-07,
        2.046456870630209e-08
      ]
    },
    {
      "name": "Door left",
      "rotation": [
        3.552713678800501e-15,
        0.0,
        0.0,
        1.0
      ],
      "translation": [
        0.0,
        -1.4736941977844253e-07,
        2.046456870630209e-08
      ]
    }
  ],
  "samplers": [
    {
      "magFilter": 9729,
      "minFilter": 9987,
      "wrapS": 10497,
      "wrapT": 10497
    }
  ],
  "scene": 0,
  "scenes": [
    {
      "name": "Sketchfab_Scene",
      "nodes": [
        0
      ]
    }
  ],
  "skins": [
    {
      "inverseBindMatrices": 12,
      "joints": [
        6,
        7,
        8,
        9,
        10,
        11,
        12
      ],
      "skeleton": 6
    }
  ],
  "textures": [
    {
      "sampler": 0,
      "source": 0
    },
    {
      "sampler": 0,
      "source": 1
    }
  ]
}
